<?xml version="1.0" encoding="UTF-8" standalone="no"?>
<!-- Created with Inkscape (http://www.inkscape.org/) -->

<svg
   xmlns:dc="http://purl.org/dc/elements/1.1/"
   xmlns:cc="http://creativecommons.org/ns#"
   xmlns:rdf="http://www.w3.org/1999/02/22-rdf-syntax-ns#"
   xmlns:svg="http://www.w3.org/2000/svg"
   xmlns="http://www.w3.org/2000/svg"
   xmlns:sodipodi="http://sodipodi.sourceforge.net/DTD/sodipodi-0.dtd"
   xmlns:inkscape="http://www.inkscape.org/namespaces/inkscape"
   id="svg3004"
   version="1.1"
   inkscape:version="0.48.5 r10040"
   width="416.80624"
   height="428.52786"
   xml:space="preserve"
   sodipodi:docname="token_logo_white.svg"><metadata
     id="metadata3010"><rdf:RDF><cc:Work
         rdf:about=""><dc:format>image/svg+xml</dc:format><dc:type
           rdf:resource="http://purl.org/dc/dcmitype/StillImage" /><dc:title /></cc:Work></rdf:RDF></metadata><defs
     id="defs3008"><clipPath
       clipPathUnits="userSpaceOnUse"
       id="clipPath3020"><path
         d="M 0,792 612,792 612,0 0,0 0,792 z"
         id="path3022"
         inkscape:connector-curvature="0" /></clipPath><clipPath
       clipPathUnits="userSpaceOnUse"
       id="clipPath3026"><path
         d="M 0,0 612,0 612,792 0,792 0,0 z"
         id="path3028"
         inkscape:connector-curvature="0" /></clipPath></defs><sodipodi:namedview
     pagecolor="#ffffff"
     bordercolor="#666666"
     borderopacity="1"
     objecttolerance="10"
     gridtolerance="10"
     guidetolerance="10"
     inkscape:pageopacity="0"
     inkscape:pageshadow="2"
     inkscape:window-width="1147"
     inkscape:window-height="856"
     id="namedview3006"
     showgrid="false"
     inkscape:zoom="1.2725"
     inkscape:cx="204.98648"
     inkscape:cy="189.47861"
     inkscape:window-x="167"
     inkscape:window-y="6"
     inkscape:window-maximized="0"
     inkscape:current-layer="g3024"
     fit-margin-top="0"
     fit-margin-left="0"
     fit-margin-right="0"
     fit-margin-bottom="0" /><g
     id="g3012"
     inkscape:groupmode="layer"
     inkscape:label="complete_token_logo"
     transform="matrix(1.25,0,0,-1.25,-184.11038,779.28262)"><g
       id="g3014"
       style="fill:#ffffff" /><g
       id="g3016"><g
         id="g3018"
         clip-path="url(#clipPath3020)"><g
           id="g3024"
           clip-path="url(#clipPath3026)"><path
             d="m 461.3643,281.2568 c 0.15,-0.306 0.435,-0.523 0.539,-0.536 l 18.83,0 0,76.161 -14.09,0.002 0,-45.086 -3.477,-0.315 -0.212,1.123 -15.342,42.683 -0.276,0 -0.313,1.334 c -0.027,0.125 -0.058,0.207 -0.086,0.261 l -17.636,0 0,-76.163 14.088,0 0,47.352 17.975,-46.816 z m -99.548,-0.648 43.412,-0.002 0,13.304 -29.322,0 0,18.125 18.48,0 0,13.302 -18.48,0.002 0,18.125 29.322,0 0,13.305 -43.412,0 0,-76.161 z m -51.561,34.654 15.959,-34.064 c 0.155,-0.345 0.457,-0.578 0.566,-0.592 l 15.671,0 0,0.002 -23.222,46.513 22.272,29.648 -17.959,0 c -0.123,-0.071 -0.508,-0.585 -0.74,-0.893 l -20.881,-29.395 0,30.288 -14.088,0 0,-76.161 14.088,-0.002 0,23.675 8.334,10.981 z m -61.381,-21.352 -15.306,0 -2.409,2.339 c -0.345,0.495 -0.665,1.053 -0.665,1.77 l 0,40.652 c 0,0.245 0.05,1.11 0.725,1.963 l 0.204,0.217 1.927,1.725 c 0.341,0.397 0.972,0.888 2.008,0.888 l 11.729,0 c 0.984,0 1.664,-0.451 2.059,-0.828 l 1.915,-1.819 c 0.763,-0.727 0.956,-1.613 0.888,-2.263 l 0,-40.535 c 0,-0.549 -0.101,-1.277 -0.888,-2.028 l -2.187,-2.081 z m -32.475,-4.558 c 0,0 -0.007,-0.845 0.791,-1.604 l 6.7,-6.375 c 0.771,-0.733 1.629,-0.77 1.795,-0.77 l 0.097,0.011 0,-0.008 31.098,-0.003 c 0.114,0.002 0.903,0.037 1.671,0.77 l 6.835,6.388 c 0.723,0.686 0.675,1.46 0.675,1.46 l -0.021,0.257 0,58.544 0.017,0.123 c 0.004,0.039 0.047,0.785 -0.682,1.48 l -6.811,6.366 c -0.702,0.719 -1.385,0.79 -1.649,0.79 l -0.119,-0.015 -0.134,0.003 -31.121,0.016 c -0.275,-0.004 -0.96,-0.075 -1.6,-0.736 l -6.751,-6.424 c -0.801,-0.76 -0.789,-1.607 -0.789,-1.643 l 0.007,-0.063 -0.003,-0.024 -0.006,-58.543 z m -52.116,-8.746 13.97,0 0,62.63 16.951,0 c 0.017,0 0.031,0.002 0.043,0.003 l 0,13.31 -47.916,-0.009 -0.043,-13.301 c 0.012,-10e-4 0.027,-0.003 0.043,-0.003 l 16.952,0 0,-62.63 z"
             style="fill:#ffffff;fill-opacity:1;fill-rule:nonzero;stroke:none"
             id="path3030"
             inkscape:connector-curvature="0" /><path
             d="m 316.8652,571.4229 12.414,1.035 -10.647,-6.463 4.82,-11.489 -9.438,8.133 -9.435,-8.136 4.817,11.489 -10.652,6.459 12.412,-1.031 2.853,12.129 2.856,-12.126 z"
             style="fill:#ffffff;fill-opacity:1;fill-rule:nonzero;stroke:none"
             id="path3032"
             inkscape:connector-curvature="0" /><path
             d="m 316.8652,443.4951 12.414,1.035 -10.647,-6.464 4.82,-11.488 -9.438,8.133 -9.435,-8.138 4.817,11.492 -10.652,6.457 12.412,-1.03 2.853,12.129 2.856,-12.126 z"
             style="fill:#ffffff;fill-opacity:1;fill-rule:nonzero;stroke:none"
             id="path3034"
             inkscape:connector-curvature="0" /><path
             d="m 314.0127,399.5771 c -58.782,0 -106.429,47.227 -106.429,105.483 0,58.254 47.647,105.481 106.429,105.481 58.778,0 106.431,-47.227 106.431,-105.481 0,-58.256 -47.653,-105.483 -106.431,-105.483 m 0,223.849 c -65.371,0 -118.366,-52.995 -118.366,-118.366 0,-65.37 52.995,-118.364 118.366,-118.364 65.368,0 118.362,52.994 118.362,118.364 0,65.371 -52.994,118.366 -118.362,118.366"
             style="fill:#ffffff;fill-opacity:1;fill-rule:nonzero;stroke:none"
             id="path3036"
             inkscape:connector-curvature="0" /><path
             d="m 314.0127,597.3101 c 0.335,0 0.669,-0.009 1.004,-0.013 l 0,6.941 c -0.335,0.004 -0.669,0.013 -1.004,0.013 -0.384,0 -0.764,-0.01 -1.146,-0.014 l 0,-6.942 c 0.382,0.005 0.762,0.015 1.146,0.015"
             style="fill:#ffffff;fill-opacity:1;fill-rule:nonzero;stroke:none"
             id="path3038"
             inkscape:connector-curvature="0" /><path
             d="m 322.1055,596.9521 0.532,6.922 c -0.712,0.06 -1.426,0.115 -2.142,0.161 l -0.531,-6.922 c 0.715,-0.045 1.429,-0.099 2.141,-0.161"
             style="fill:#ffffff;fill-opacity:1;fill-rule:nonzero;stroke:none"
             id="path3040"
             inkscape:connector-curvature="0" /><path
             d="m 329.1514,596.0659 1.059,6.861 c -0.705,0.116 -1.413,0.225 -2.123,0.326 l -1.06,-6.862 c 0.71,-0.1 1.419,-0.209 2.124,-0.325"
             style="fill:#ffffff;fill-opacity:1;fill-rule:nonzero;stroke:none"
             id="path3042"
             inkscape:connector-curvature="0" /><path
             d="m 336.1074,594.6396 1.582,6.76 c -0.695,0.17 -1.392,0.333 -2.094,0.489 l -1.581,-6.761 c 0.7,-0.155 1.399,-0.317 2.093,-0.488"
             style="fill:#ffffff;fill-opacity:1;fill-rule:nonzero;stroke:none"
             id="path3044"
             inkscape:connector-curvature="0" /><path
             d="m 342.9326,592.6792 2.095,6.619 c -0.68,0.223 -1.363,0.441 -2.047,0.65 l -2.097,-6.62 c 0.687,-0.208 1.369,-0.425 2.049,-0.649"
             style="fill:#ffffff;fill-opacity:1;fill-rule:nonzero;stroke:none"
             id="path3046"
             inkscape:connector-curvature="0" /><path
             d="m 349.585,590.1978 2.596,6.438 c -0.66,0.275 -1.325,0.546 -1.992,0.808 l -2.594,-6.44 c 0.667,-0.261 1.329,-0.531 1.99,-0.806"
             style="fill:#ffffff;fill-opacity:1;fill-rule:nonzero;stroke:none"
             id="path3048"
             inkscape:connector-curvature="0" /><path
             d="m 356.0244,587.209 3.08,6.221 c -0.636,0.325 -1.278,0.643 -1.922,0.955 l -3.08,-6.22 c 0.646,-0.312 1.285,-0.63 1.922,-0.956"
             style="fill:#ffffff;fill-opacity:1;fill-rule:nonzero;stroke:none"
             id="path3050"
             inkscape:connector-curvature="0" /><path
             d="m 362.2109,583.7271 3.548,5.967 c -0.61,0.373 -1.226,0.74 -1.843,1.1 l -3.548,-5.966 c 0.619,-0.36 1.234,-0.727 1.843,-1.101"
             style="fill:#ffffff;fill-opacity:1;fill-rule:nonzero;stroke:none"
             id="path3052"
             inkscape:connector-curvature="0" /><path
             d="m 368.1113,579.7808 3.995,5.677 c -0.58,0.42 -1.166,0.832 -1.755,1.24 l -3.992,-5.676 c 0.589,-0.408 1.174,-0.821 1.752,-1.241"
             style="fill:#ffffff;fill-opacity:1;fill-rule:nonzero;stroke:none"
             id="path3054"
             inkscape:connector-curvature="0" /><path
             d="m 373.6924,575.397 4.415,5.355 c -0.546,0.463 -1.097,0.92 -1.652,1.372 l -4.416,-5.355 c 0.556,-0.451 1.107,-0.908 1.653,-1.372"
             style="fill:#ffffff;fill-opacity:1;fill-rule:nonzero;stroke:none"
             id="path3056"
             inkscape:connector-curvature="0" /><path
             d="m 378.9229,570.6025 4.811,5 c -0.509,0.503 -1.023,1.003 -1.542,1.495 l -4.813,-5 c 0.521,-0.493 1.035,-0.991 1.544,-1.495"
             style="fill:#ffffff;fill-opacity:1;fill-rule:nonzero;stroke:none"
             id="path3058"
             inkscape:connector-curvature="0" /><path
             d="m 383.7705,565.4248 5.181,4.617 c -0.469,0.54 -0.946,1.075 -1.426,1.606 l -5.181,-4.616 c 0.482,-0.53 0.957,-1.065 1.426,-1.607"
             style="fill:#ffffff;fill-opacity:1;fill-rule:nonzero;stroke:none"
             id="path3060"
             inkscape:connector-curvature="0" /><path
             d="m 388.2012,559.8877 5.52,4.208 c -0.427,0.575 -0.86,1.144 -1.299,1.709 l -5.518,-4.206 c 0.438,-0.565 0.871,-1.135 1.297,-1.711"
             style="fill:#ffffff;fill-opacity:1;fill-rule:nonzero;stroke:none"
             id="path3062"
             inkscape:connector-curvature="0" /><path
             d="m 392.1973,554.0308 5.824,3.772 c -0.38,0.606 -0.768,1.207 -1.162,1.804 l -5.826,-3.771 c 0.395,-0.597 0.782,-1.199 1.164,-1.805"
             style="fill:#ffffff;fill-opacity:1;fill-rule:nonzero;stroke:none"
             id="path3064"
             inkscape:connector-curvature="0" /><path
             d="m 395.7314,547.8862 6.098,3.316 c -0.334,0.633 -0.675,1.263 -1.021,1.888 l -6.098,-3.315 c 0.348,-0.625 0.687,-1.255 1.021,-1.889"
             style="fill:#ffffff;fill-opacity:1;fill-rule:nonzero;stroke:none"
             id="path3066"
             inkscape:connector-curvature="0" /><path
             d="m 398.7842,541.4893 6.332,2.839 c -0.284,0.657 -0.573,1.311 -0.871,1.961 l -6.334,-2.837 c 0.3,-0.65 0.589,-1.305 0.873,-1.963"
             style="fill:#ffffff;fill-opacity:1;fill-rule:nonzero;stroke:none"
             id="path3068"
             inkscape:connector-curvature="0" /><path
             d="m 401.333,534.8789 6.53,2.346 c -0.231,0.676 -0.467,1.351 -0.714,2.022 l -6.534,-2.344 c 0.248,-0.671 0.487,-1.346 0.718,-2.024"
             style="fill:#ffffff;fill-opacity:1;fill-rule:nonzero;stroke:none"
             id="path3070"
             inkscape:connector-curvature="0" /><path
             d="m 403.3623,528.0918 6.691,1.838 c -0.177,0.694 -0.366,1.385 -0.559,2.072 l -6.692,-1.838 c 0.194,-0.688 0.382,-1.378 0.56,-2.072"
             style="fill:#ffffff;fill-opacity:1;fill-rule:nonzero;stroke:none"
             id="path3072"
             inkscape:connector-curvature="0" /><path
             d="m 404.8564,521.1704 6.814,1.321 c -0.125,0.706 -0.259,1.408 -0.4,2.108 l -6.812,-1.319 c 0.139,-0.701 0.275,-1.404 0.398,-2.11"
             style="fill:#ffffff;fill-opacity:1;fill-rule:nonzero;stroke:none"
             id="path3074"
             inkscape:connector-curvature="0" /><path
             d="m 405.8145,514.1563 6.896,0.796 c -0.073,0.713 -0.153,1.423 -0.239,2.132 l -6.893,-0.794 c 0.088,-0.709 0.166,-1.421 0.236,-2.134"
             style="fill:#ffffff;fill-opacity:1;fill-rule:nonzero;stroke:none"
             id="path3076"
             inkscape:connector-curvature="0" /><path
             d="m 406.1621,509.2388 c 0.032,-0.713 0.058,-1.428 0.073,-2.146 l 6.935,0.267 c -0.017,0.716 -0.043,1.43 -0.075,2.143 l -6.933,-0.264 z"
             style="fill:#ffffff;fill-opacity:1;fill-rule:nonzero;stroke:none"
             id="path3078"
             inkscape:connector-curvature="0" /><path
             d="m 406.123,500.022 6.934,-0.266 c 0.038,0.713 0.065,1.428 0.087,2.144 l -6.932,0.268 c -0.023,-0.717 -0.052,-1.433 -0.089,-2.146"
             style="fill:#ffffff;fill-opacity:1;fill-rule:nonzero;stroke:none"
             id="path3080"
             inkscape:connector-curvature="0" /><path
             d="m 405.4736,492.9814 6.896,-0.795 c 0.09,0.707 0.172,1.418 0.248,2.13 l -6.892,0.798 c -0.075,-0.713 -0.159,-1.425 -0.252,-2.133"
             style="fill:#ffffff;fill-opacity:1;fill-rule:nonzero;stroke:none"
             id="path3082"
             inkscape:connector-curvature="0" /><path
             d="m 404.2881,486.0137 6.813,-1.321 c 0.147,0.699 0.283,1.401 0.414,2.105 l -6.811,1.323 c -0.132,-0.705 -0.269,-1.407 -0.416,-2.107"
             style="fill:#ffffff;fill-opacity:1;fill-rule:nonzero;stroke:none"
             id="path3084"
             inkscape:connector-curvature="0" /><path
             d="m 402.5703,479.1597 6.691,-1.839 c 0.201,0.686 0.39,1.375 0.575,2.067 l -6.69,1.839 c -0.184,-0.692 -0.376,-1.38 -0.576,-2.067"
             style="fill:#ffffff;fill-opacity:1;fill-rule:nonzero;stroke:none"
             id="path3086"
             inkscape:connector-curvature="0" /><path
             d="m 400.3281,472.4609 6.532,-2.347 c 0.252,0.669 0.496,1.34 0.735,2.016 l -6.532,2.348 c -0.237,-0.676 -0.482,-1.349 -0.735,-2.017"
             style="fill:#ffffff;fill-opacity:1;fill-rule:nonzero;stroke:none"
             id="path3088"
             inkscape:connector-curvature="0" /><path
             d="m 397.5791,465.957 6.334,-2.84 c 0.302,0.648 0.598,1.299 0.887,1.953 l -6.332,2.841 c -0.287,-0.655 -0.584,-1.308 -0.889,-1.954"
             style="fill:#ffffff;fill-opacity:1;fill-rule:nonzero;stroke:none"
             id="path3090"
             inkscape:connector-curvature="0" /><path
             d="m 394.3418,459.6836 6.096,-3.315 c 0.352,0.623 0.698,1.249 1.037,1.879 l -6.096,3.317 c -0.339,-0.631 -0.684,-1.259 -1.037,-1.881"
             style="fill:#ffffff;fill-opacity:1;fill-rule:nonzero;stroke:none"
             id="path3092"
             inkscape:connector-curvature="0" /><path
             d="m 390.6348,453.6787 5.824,-3.771 c 0.399,0.593 0.792,1.189 1.177,1.792 l -5.823,3.774 c -0.385,-0.603 -0.78,-1.201 -1.178,-1.795"
             style="fill:#ffffff;fill-opacity:1;fill-rule:nonzero;stroke:none"
             id="path3094"
             inkscape:connector-curvature="0" /><path
             d="m 386.4834,447.9785 5.519,-4.208 c 0.441,0.562 0.877,1.13 1.305,1.701 l -5.515,4.208 c -0.431,-0.572 -0.868,-1.139 -1.309,-1.701"
             style="fill:#ffffff;fill-opacity:1;fill-rule:nonzero;stroke:none"
             id="path3096"
             inkscape:connector-curvature="0" /><path
             d="m 381.9053,442.6143 5.182,-4.617 c 0.483,0.526 0.96,1.059 1.432,1.596 l -5.178,4.618 c -0.472,-0.538 -0.95,-1.071 -1.436,-1.597"
             style="fill:#ffffff;fill-opacity:1;fill-rule:nonzero;stroke:none"
             id="path3098"
             inkscape:connector-curvature="0" /><path
             d="m 376.9385,437.6133 4.812,-4.999 c 0.521,0.488 1.038,0.981 1.547,1.48 l -4.808,5.001 c -0.512,-0.5 -1.029,-0.994 -1.551,-1.482"
             style="fill:#ffffff;fill-opacity:1;fill-rule:nonzero;stroke:none"
             id="path3100"
             inkscape:connector-curvature="0" /><path
             d="m 371.6094,433.0039 4.414,-5.353 c 0.558,0.448 1.11,0.9 1.658,1.359 l -4.412,5.354 c -0.549,-0.459 -1.101,-0.913 -1.66,-1.36"
             style="fill:#ffffff;fill-opacity:1;fill-rule:nonzero;stroke:none"
             id="path3102"
             inkscape:connector-curvature="0" /><path
             d="m 365.9473,428.8135 3.992,-5.675 c 0.589,0.404 1.176,0.811 1.756,1.227 l -3.991,5.676 c -0.58,-0.415 -1.165,-0.825 -1.757,-1.228"
             style="fill:#ffffff;fill-opacity:1;fill-rule:nonzero;stroke:none"
             id="path3104"
             inkscape:connector-curvature="0" /><path
             d="m 359.9844,425.0645 3.544,-5.965 c 0.62,0.358 1.234,0.72 1.846,1.091 l -3.543,5.966 c -0.612,-0.372 -1.227,-0.736 -1.847,-1.092"
             style="fill:#ffffff;fill-opacity:1;fill-rule:nonzero;stroke:none"
             id="path3106"
             inkscape:connector-curvature="0" /><path
             d="m 353.75,421.7871 3.08,-6.22 c 0.646,0.31 1.284,0.627 1.921,0.949 l -3.077,6.219 c -0.637,-0.322 -1.278,-0.639 -1.924,-0.948"
             style="fill:#ffffff;fill-opacity:1;fill-rule:nonzero;stroke:none"
             id="path3108"
             inkscape:connector-curvature="0" /><path
             d="m 347.2842,418.998 2.597,-6.438 c 0.666,0.26 1.328,0.527 1.986,0.799 l -2.591,6.438 c -0.66,-0.274 -1.324,-0.54 -1.992,-0.799"
             style="fill:#ffffff;fill-opacity:1;fill-rule:nonzero;stroke:none"
             id="path3110"
             inkscape:connector-curvature="0" /><path
             d="m 340.626,416.7139 2.093,-6.617 c 0.684,0.207 1.365,0.421 2.045,0.642 l -2.093,6.618 c -0.678,-0.223 -1.36,-0.437 -2.045,-0.643"
             style="fill:#ffffff;fill-opacity:1;fill-rule:nonzero;stroke:none"
             id="path3112"
             inkscape:connector-curvature="0" /><path
             d="m 333.8125,414.9473 1.582,-6.757 c 0.699,0.153 1.395,0.315 2.088,0.483 l -1.58,6.756 c -0.694,-0.168 -1.39,-0.329 -2.09,-0.482"
             style="fill:#ffffff;fill-opacity:1;fill-rule:nonzero;stroke:none"
             id="path3114"
             inkscape:connector-curvature="0" /><path
             d="m 326.8857,413.708 1.059,-6.857 c 0.709,0.099 1.414,0.206 2.117,0.32 l -1.058,6.858 c -0.703,-0.115 -1.41,-0.222 -2.118,-0.321"
             style="fill:#ffffff;fill-opacity:1;fill-rule:nonzero;stroke:none"
             id="path3116"
             inkscape:connector-curvature="0" /><path
             d="m 319.8838,413.001 0.532,-6.918 c 0.714,0.046 1.426,0.098 2.135,0.158 l -0.527,6.919 c -0.71,-0.061 -1.424,-0.114 -2.14,-0.159"
             style="fill:#ffffff;fill-opacity:1;fill-rule:nonzero;stroke:none"
             id="path3118"
             inkscape:connector-curvature="0" /><path
             d="m 314.0127,412.8096 c -0.389,0 -0.773,0.01 -1.16,0.015 l 0,-6.938 c 0.387,-0.005 0.771,-0.015 1.16,-0.015 0.326,0 0.653,0.01 0.98,0.012 l 0.003,6.939 c -0.328,-0.004 -0.655,-0.013 -0.983,-0.013"
             style="fill:#ffffff;fill-opacity:1;fill-rule:nonzero;stroke:none"
             id="path3120"
             inkscape:connector-curvature="0" /><path
             d="m 305.8271,413.1748 -0.53,-6.918 c 0.71,-0.061 1.42,-0.115 2.134,-0.162 l 0.535,6.917 c -0.715,0.046 -1.429,0.1 -2.139,0.163"
             style="fill:#ffffff;fill-opacity:1;fill-rule:nonzero;stroke:none"
             id="path3122"
             inkscape:connector-curvature="0" /><path
             d="m 298.8467,414.0576 -1.058,-6.857 c 0.704,-0.116 1.409,-0.225 2.116,-0.326 l 1.062,6.858 c -0.71,0.099 -1.415,0.209 -2.12,0.325"
             style="fill:#ffffff;fill-opacity:1;fill-rule:nonzero;stroke:none"
             id="path3124"
             inkscape:connector-curvature="0" /><path
             d="m 291.9551,415.4697 -1.582,-6.756 c 0.693,-0.17 1.389,-0.332 2.087,-0.487 l 1.584,6.757 c -0.699,0.154 -1.397,0.316 -2.089,0.486"
             style="fill:#ffffff;fill-opacity:1;fill-rule:nonzero;stroke:none"
             id="path3126"
             inkscape:connector-curvature="0" /><path
             d="m 285.1914,417.4082 -2.093,-6.617 c 0.678,-0.222 1.357,-0.438 2.042,-0.646 l 2.096,6.617 c -0.686,0.208 -1.367,0.422 -2.045,0.646"
             style="fill:#ffffff;fill-opacity:1;fill-rule:nonzero;stroke:none"
             id="path3128"
             inkscape:connector-curvature="0" /><path
             d="m 278.5962,419.8594 -2.595,-6.438 c 0.659,-0.274 1.322,-0.541 1.987,-0.801 l 2.598,6.436 c -0.667,0.26 -1.331,0.528 -1.99,0.803"
             style="fill:#ffffff;fill-opacity:1;fill-rule:nonzero;stroke:none"
             id="path3130"
             inkscape:connector-curvature="0" /><path
             d="m 272.2041,422.8076 -3.079,-6.219 c 0.637,-0.324 1.275,-0.642 1.919,-0.953 l 3.083,6.22 c -0.645,0.309 -1.286,0.628 -1.923,0.952"
             style="fill:#ffffff;fill-opacity:1;fill-rule:nonzero;stroke:none"
             id="path3132"
             inkscape:connector-curvature="0" /><path
             d="m 266.062,426.2373 -3.546,-5.966 c 0.609,-0.371 1.224,-0.733 1.841,-1.091 l 3.548,5.963 c -0.617,0.358 -1.234,0.723 -1.843,1.094"
             style="fill:#ffffff;fill-opacity:1;fill-rule:nonzero;stroke:none"
             id="path3134"
             inkscape:connector-curvature="0" /><path
             d="m 260.1973,430.1309 -3.991,-5.677 c 0.578,-0.417 1.164,-0.825 1.753,-1.228 l 3.994,5.673 c -0.59,0.403 -1.176,0.814 -1.756,1.232"
             style="fill:#ffffff;fill-opacity:1;fill-rule:nonzero;stroke:none"
             id="path3136"
             inkscape:connector-curvature="0" /><path
             d="m 254.6475,434.4551 -4.416,-5.354 c 0.546,-0.458 1.098,-0.911 1.654,-1.358 l 4.417,5.352 c -0.556,0.447 -1.109,0.9 -1.655,1.36"
             style="fill:#ffffff;fill-opacity:1;fill-rule:nonzero;stroke:none"
             id="path3138"
             inkscape:connector-curvature="0" /><path
             d="m 249.438,439.1885 -4.813,-5 c 0.511,-0.498 1.026,-0.992 1.546,-1.479 l 4.814,4.998 c -0.522,0.487 -1.037,0.981 -1.547,1.481"
             style="fill:#ffffff;fill-opacity:1;fill-rule:nonzero;stroke:none"
             id="path3140"
             inkscape:connector-curvature="0" /><path
             d="m 244.6001,444.3037 -5.18,-4.617 c 0.47,-0.535 0.944,-1.068 1.425,-1.593 l 5.186,4.614 c -0.483,0.527 -0.96,1.059 -1.431,1.596"
             style="fill:#ffffff;fill-opacity:1;fill-rule:nonzero;stroke:none"
             id="path3142"
             inkscape:connector-curvature="0" /><path
             d="m 240.1626,449.7715 -5.519,-4.208 c 0.428,-0.57 0.86,-1.137 1.3,-1.697 l 5.523,4.204 c -0.442,0.561 -0.876,1.129 -1.304,1.701"
             style="fill:#ffffff;fill-opacity:1;fill-rule:nonzero;stroke:none"
             id="path3144"
             inkscape:connector-curvature="0" /><path
             d="m 236.1543,455.5654 -5.825,-3.773 c 0.383,-0.602 0.775,-1.198 1.17,-1.79 l 5.827,3.769 c -0.397,0.594 -0.789,1.19 -1.172,1.794"
             style="fill:#ffffff;fill-opacity:1;fill-rule:nonzero;stroke:none"
             id="path3146"
             inkscape:connector-curvature="0" /><path
             d="m 232.6016,461.6504 -6.099,-3.316 c 0.337,-0.629 0.681,-1.254 1.03,-1.875 l 6.101,3.312 c -0.351,0.622 -0.697,1.247 -1.032,1.879"
             style="fill:#ffffff;fill-opacity:1;fill-rule:nonzero;stroke:none"
             id="path3148"
             inkscape:connector-curvature="0" /><path
             d="m 229.521,467.9902 -6.335,-2.841 c 0.287,-0.652 0.582,-1.302 0.883,-1.948 l 6.337,2.837 c -0.303,0.646 -0.597,1.297 -0.885,1.952"
             style="fill:#ffffff;fill-opacity:1;fill-rule:nonzero;stroke:none"
             id="path3150"
             inkscape:connector-curvature="0" /><path
             d="m 226.9355,474.5508 -6.534,-2.347 c 0.236,-0.674 0.479,-1.344 0.731,-2.011 l 6.535,2.342 c -0.252,0.668 -0.496,1.34 -0.732,2.016"
             style="fill:#ffffff;fill-opacity:1;fill-rule:nonzero;stroke:none"
             id="path3152"
             inkscape:connector-curvature="0" /><path
             d="m 224.8613,481.2915 -6.695,-1.841 c 0.185,-0.689 0.373,-1.376 0.571,-2.059 l 6.697,1.835 c -0.198,0.686 -0.39,1.374 -0.573,2.065"
             style="fill:#ffffff;fill-opacity:1;fill-rule:nonzero;stroke:none"
             id="path3154"
             inkscape:connector-curvature="0" /><path
             d="m 223.3105,488.1753 -6.814,-1.322 c 0.129,-0.702 0.265,-1.403 0.41,-2.1 l 6.817,1.319 c -0.146,0.698 -0.283,1.399 -0.413,2.103"
             style="fill:#ffffff;fill-opacity:1;fill-rule:nonzero;stroke:none"
             id="path3156"
             inkscape:connector-curvature="0" /><path
             d="m 222.2939,495.1577 -6.896,-0.796 c 0.077,-0.709 0.157,-1.418 0.248,-2.123 l 6.898,0.792 c -0.092,0.707 -0.174,1.416 -0.25,2.127"
             style="fill:#ffffff;fill-opacity:1;fill-rule:nonzero;stroke:none"
             id="path3158"
             inkscape:connector-curvature="0" /><path
             d="m 221.8115,502.2007 -6.936,-0.265 c 0.022,-0.714 0.048,-1.427 0.085,-2.137 l 6.938,0.261 c -0.037,0.712 -0.065,1.426 -0.087,2.141"
             style="fill:#ffffff;fill-opacity:1;fill-rule:nonzero;stroke:none"
             id="path3160"
             inkscape:connector-curvature="0" /><path
             d="m 221.8628,509.2617 -6.936,0.266 c -0.031,-0.71 -0.058,-1.422 -0.075,-2.137 l 6.938,-0.27 c 0.015,0.715 0.041,1.429 0.073,2.141"
             style="fill:#ffffff;fill-opacity:1;fill-rule:nonzero;stroke:none"
             id="path3162"
             inkscape:connector-curvature="0" /><path
             d="m 222.4463,516.3032 -6.895,0.796 c -0.085,-0.706 -0.166,-1.414 -0.238,-2.125 l 6.899,-0.801 c 0.068,0.712 0.149,1.422 0.234,2.13"
             style="fill:#ffffff;fill-opacity:1;fill-rule:nonzero;stroke:none"
             id="path3164"
             inkscape:connector-curvature="0" /><path
             d="m 223.5659,523.2803 -6.815,1.322 c -0.139,-0.698 -0.274,-1.398 -0.398,-2.101 l 6.816,-1.327 c 0.125,0.705 0.258,1.407 0.397,2.106"
             style="fill:#ffffff;fill-opacity:1;fill-rule:nonzero;stroke:none"
             id="path3166"
             inkscape:connector-curvature="0" /><path
             d="m 225.2188,530.1548 -6.693,1.84 c -0.193,-0.686 -0.38,-1.374 -0.559,-2.064 l 6.694,-1.845 c 0.178,0.693 0.365,1.382 0.558,2.069"
             style="fill:#ffffff;fill-opacity:1;fill-rule:nonzero;stroke:none"
             id="path3168"
             inkscape:connector-curvature="0" /><path
             d="m 227.4009,536.8823 -6.536,2.348 c -0.244,-0.668 -0.481,-1.342 -0.712,-2.017 l 6.533,-2.351 c 0.231,0.677 0.468,1.351 0.715,2.02"
             style="fill:#ffffff;fill-opacity:1;fill-rule:nonzero;stroke:none"
             id="path3170"
             inkscape:connector-curvature="0" /><path
             d="m 230.0981,543.4229 -6.334,2.841 c -0.296,-0.647 -0.583,-1.299 -0.866,-1.954 l 6.332,-2.844 c 0.283,0.656 0.572,1.31 0.868,1.957"
             style="fill:#ffffff;fill-opacity:1;fill-rule:nonzero;stroke:none"
             id="path3172"
             inkscape:connector-curvature="0" /><path
             d="m 233.293,549.7397 -6.099,3.316 c -0.344,-0.623 -0.683,-1.25 -1.015,-1.881 l 6.097,-3.321 c 0.332,0.633 0.671,1.261 1.017,1.886"
             style="fill:#ffffff;fill-opacity:1;fill-rule:nonzero;stroke:none"
             id="path3174"
             inkscape:connector-curvature="0" /><path
             d="m 236.9624,555.7935 -5.826,3.773 c -0.392,-0.594 -0.778,-1.192 -1.156,-1.796 l 5.823,-3.777 c 0.38,0.605 0.765,1.204 1.159,1.8"
             style="fill:#ffffff;fill-opacity:1;fill-rule:nonzero;stroke:none"
             id="path3176"
             inkscape:connector-curvature="0" /><path
             d="m 241.085,561.5522 -5.519,4.208 c -0.437,-0.563 -0.868,-1.13 -1.294,-1.703 l 5.519,-4.212 c 0.424,0.574 0.856,1.143 1.294,1.707"
             style="fill:#ffffff;fill-opacity:1;fill-rule:nonzero;stroke:none"
             id="path3178"
             inkscape:connector-curvature="0" /><path
             d="m 245.6338,566.9805 -5.181,4.618 c -0.477,-0.528 -0.951,-1.06 -1.418,-1.598 l 5.179,-4.623 c 0.466,0.54 0.941,1.074 1.42,1.603"
             style="fill:#ffffff;fill-opacity:1;fill-rule:nonzero;stroke:none"
             id="path3180"
             inkscape:connector-curvature="0" /><path
             d="m 250.5898,572.0444 -4.814,5.002 c -0.517,-0.49 -1.027,-0.987 -1.532,-1.489 l 4.809,-5.003 c 0.507,0.503 1.018,1 1.537,1.49"
             style="fill:#ffffff;fill-opacity:1;fill-rule:nonzero;stroke:none"
             id="path3182"
             inkscape:connector-curvature="0" /><path
             d="m 255.9189,576.7163 -4.416,5.355 c -0.552,-0.449 -1.1,-0.905 -1.644,-1.367 l 4.412,-5.358 c 0.544,0.463 1.093,0.92 1.648,1.37"
             style="fill:#ffffff;fill-opacity:1;fill-rule:nonzero;stroke:none"
             id="path3184"
             inkscape:connector-curvature="0" /><path
             d="m 261.5903,580.9702 -3.993,5.676 c -0.587,-0.405 -1.167,-0.817 -1.743,-1.235 l 3.988,-5.68 c 0.578,0.419 1.161,0.832 1.748,1.239"
             style="fill:#ffffff;fill-opacity:1;fill-rule:nonzero;stroke:none"
             id="path3186"
             inkscape:connector-curvature="0" /><path
             d="m 267.5713,584.7793 -3.546,5.967 c -0.614,-0.36 -1.227,-0.725 -1.832,-1.097 l 3.542,-5.971 c 0.607,0.374 1.22,0.741 1.836,1.101"
             style="fill:#ffffff;fill-opacity:1;fill-rule:nonzero;stroke:none"
             id="path3188"
             inkscape:connector-curvature="0" /><path
             d="m 273.8281,588.1191 -3.079,6.221 c -0.642,-0.311 -1.28,-0.626 -1.913,-0.951 l 3.077,-6.226 c 0.633,0.326 1.273,0.644 1.915,0.956"
             style="fill:#ffffff;fill-opacity:1;fill-rule:nonzero;stroke:none"
             id="path3190"
             inkscape:connector-curvature="0" /><path
             d="m 280.3311,590.9658 -2.594,6.441 c -0.666,-0.261 -1.325,-0.532 -1.982,-0.807 l 2.591,-6.441 c 0.657,0.277 1.319,0.546 1.985,0.807"
             style="fill:#ffffff;fill-opacity:1;fill-rule:nonzero;stroke:none"
             id="path3192"
             inkscape:connector-curvature="0" /><path
             d="m 287.0347,593.2979 -2.093,6.62 c -0.683,-0.209 -1.362,-0.427 -2.038,-0.65 l 2.089,-6.62 c 0.678,0.224 1.357,0.441 2.042,0.65"
             style="fill:#ffffff;fill-opacity:1;fill-rule:nonzero;stroke:none"
             id="path3194"
             inkscape:connector-curvature="0" /><path
             d="m 293.8994,595.104 -1.582,6.761 c -0.696,-0.156 -1.39,-0.319 -2.081,-0.49 l 1.578,-6.76 c 0.691,0.171 1.386,0.334 2.085,0.489"
             style="fill:#ffffff;fill-opacity:1;fill-rule:nonzero;stroke:none"
             id="path3196"
             inkscape:connector-curvature="0" /><path
             d="m 300.8809,596.3755 -1.059,6.861 c -0.707,-0.102 -1.41,-0.211 -2.112,-0.327 l 1.055,-6.862 c 0.703,0.118 1.408,0.227 2.116,0.328"
             style="fill:#ffffff;fill-opacity:1;fill-rule:nonzero;stroke:none"
             id="path3198"
             inkscape:connector-curvature="0" /><path
             d="m 307.9424,597.1064 -0.53,6.921 c -0.712,-0.047 -1.423,-0.101 -2.133,-0.164 l 0.527,-6.922 c 0.71,0.063 1.422,0.118 2.136,0.165"
             style="fill:#ffffff;fill-opacity:1;fill-rule:nonzero;stroke:none"
             id="path3200"
             inkscape:connector-curvature="0" /><path
             d="m 381.357,466.038 -134.692,0 0,4.951 134.692,0 0,-4.951 z"
             style="fill:#ffffff;fill-opacity:1;fill-rule:nonzero;stroke:none"
             id="path3202"
             inkscape:connector-curvature="0" /><path
             d="m 381.357,539.132 -134.692,0 0,4.952 134.692,0 0,-4.952 z"
             style="fill:#ffffff;fill-opacity:1;fill-rule:nonzero;stroke:none"
             id="path3204"
             inkscape:connector-curvature="0" /><path
             d="m 259.2183,477.854 10.054,0 0,45.082 12.204,0 c 0.01,0 0.022,10e-4 0.029,0.002 l 0,9.58 -34.491,-0.006 -0.03,-9.574 c 0.01,-10e-4 0.019,-0.002 0.03,-0.002 l 12.204,0 0,-45.082 z"
             style="fill:#ffffff;fill-opacity:1;fill-rule:nonzero;stroke:none"
             id="path3206"
             inkscape:connector-curvature="0" /><path
             d="m 309.8691,502.7988 11.486,-24.519 c 0.114,-0.249 0.327,-0.416 0.41,-0.426 l 11.278,0 0,0.001 -16.715,33.482 16.033,21.337 -12.929,0 c -0.087,-0.049 -0.365,-0.419 -0.532,-0.641 l -15.031,-21.159 0,21.8 -10.14,0 0,-54.819 10.14,-0.001 0,17.042 6,7.903 z"
             style="fill:#ffffff;fill-opacity:1;fill-rule:nonzero;stroke:none"
             id="path3208"
             inkscape:connector-curvature="0" /><path
             d="m 367.0967,478.3223 c 0.108,-0.22 0.313,-0.376 0.391,-0.386 l 13.551,0 0,54.82 -10.141,10e-4 0,-32.453 -2.502,-0.226 -0.153,0.809 -11.046,30.722 -0.197,0 -0.225,0.961 c -0.02,0.089 -0.043,0.148 -0.061,0.187 l -12.696,0 0,-54.821 10.143,0 0,34.084 12.936,-33.698 z"
             style="fill:#ffffff;fill-opacity:1;fill-rule:nonzero;stroke:none"
             id="path3210"
             inkscape:connector-curvature="0" /></g></g></g></g></svg>